<svg width="45" height="45" viewBox="0 0 45 45" fill="none" xmlns="http://www.w3.org/2000/svg">
<path d="M22.6875 3C20.4625 3 18.2874 3.6598 16.4373 4.89597C14.5873 6.13213 13.1453 7.88914 12.2939 9.94481C11.4424 12.0005 11.2196 14.2625 11.6537 16.4448C12.0877 18.6271 13.1592 20.6316 14.7325 22.205C16.3059 23.7783 18.3104 24.8498 20.4927 25.2838C22.675 25.7179 24.937 25.4951 26.9927 24.6436C29.0484 23.7922 30.8054 22.3502 32.0415 20.5002C33.2777 18.6501 33.9375 16.475 33.9375 14.25C33.9338 11.2675 32.7473 8.40814 30.6383 6.29916C28.5294 4.19018 25.67 3.00372 22.6875 3ZM30.9984 12.8438H27.57C27.4998 10.7567 27.125 8.69117 26.4577 6.7125C27.6423 7.30677 28.6706 8.17138 29.4594 9.23648C30.2482 10.3016 30.7754 11.5373 30.9984 12.8438ZM22.7184 22.6861H22.7072C22.1728 22.5173 20.8664 20.1253 20.6273 15.6562H24.7477C24.5086 20.1225 23.2092 22.5145 22.7184 22.6861ZM20.6273 12.8438C20.8664 8.3775 22.1658 5.98547 22.6566 5.81391H22.6678C23.2022 5.98266 24.5086 8.37469 24.7477 12.8438H20.6273ZM18.9187 6.7125C18.2509 8.6911 17.8757 10.7567 17.805 12.8438H14.3766C14.5997 11.5371 15.1271 10.3013 15.9162 9.23624C16.7053 8.17114 17.7338 7.3066 18.9187 6.7125ZM14.3766 15.6562H17.8036C17.8743 17.7433 18.2495 19.8089 18.9173 21.7875C17.7327 21.1932 16.7044 20.3286 15.9156 19.2635C15.1268 18.1984 14.5996 16.9627 14.3766 15.6562ZM26.4563 21.7875C27.1241 19.8089 27.4993 17.7433 27.57 15.6562H30.9984C30.7753 16.9629 30.2479 18.1987 29.4588 19.2638C28.6698 20.3289 27.6412 21.1934 26.4563 21.7875ZM39.5625 42.375H5.8125C5.06681 42.3743 4.35187 42.0777 3.82458 41.5504C3.2973 41.0231 3.00074 40.3082 3 39.5625V31.125C3.00074 30.3793 3.2973 29.6644 3.82458 29.1371C4.35187 28.6098 5.06681 28.3132 5.8125 28.3125H39.5625C40.3082 28.3132 41.0231 28.6098 41.5504 29.1371C42.0777 29.6644 42.3743 30.3793 42.375 31.125V39.5625C42.3743 40.3082 42.0777 41.0231 41.5504 41.5504C41.0231 42.0777 40.3082 42.3743 39.5625 42.375ZM5.8125 31.125V39.5625H39.5625V31.125H5.8125Z" fill="#C1C4D6"/>
<path d="M10.0312 36.5625C10.8079 36.5625 11.4375 35.9329 11.4375 35.1562C11.4375 34.3796 10.8079 33.75 10.0312 33.75C9.2546 33.75 8.625 34.3796 8.625 35.1562C8.625 35.9329 9.2546 36.5625 10.0312 36.5625Z" fill="#C1C4D6"/>
</svg>
