<svg width="46" height="45" viewBox="0 0 46 45" fill="none" xmlns="http://www.w3.org/2000/svg">
<path d="M37.775 34.6312C38.6 33.3187 39.0875 31.8 39.0875 30.15C39.0875 25.4812 35.3187 21.7125 30.65 21.7125C25.9812 21.7125 22.2125 25.4812 22.2125 30.15C22.2125 34.8187 25.9812 38.5875 30.6312 38.5875C32.2812 38.5875 33.8187 38.1 35.1125 37.275L40.9625 43.125L43.625 40.4625L37.775 34.6312ZM30.65 34.8375C29.4068 34.8375 28.2145 34.3436 27.3354 33.4646C26.4564 32.5855 25.9625 31.3932 25.9625 30.15C25.9625 28.9068 26.4564 27.7145 27.3354 26.8354C28.2145 25.9564 29.4068 25.4625 30.65 25.4625C31.8932 25.4625 33.0855 25.9564 33.9646 26.8354C34.8436 27.7145 35.3375 28.9068 35.3375 30.15C35.3375 31.3932 34.8436 32.5855 33.9646 33.4646C33.0855 34.3436 31.8932 34.8375 30.65 34.8375ZM29.975 18.9C28.5875 18.9375 27.2562 19.2375 26.0375 19.7437L25.0062 18.1875L17.8813 29.775L12.2375 23.175L5.43125 34.0688L2.375 31.875L11.75 16.875L17.375 23.4375L24.875 11.25L29.975 18.9V18.9ZM34.8312 19.8375C33.6312 19.3125 32.3375 18.9938 30.9875 18.9188L40.5875 3.75L43.625 5.9625L34.8312 19.8375V19.8375Z" fill="#C1C4D6"/>
</svg>
