<svg width="46" height="45" viewBox="0 0 46 45" fill="none" xmlns="http://www.w3.org/2000/svg">
<path d="M43.158 33.3556L40.6336 28.3083C40.3905 27.8217 40.0166 27.4124 39.5539 27.1264C39.0912 26.8403 38.558 26.6888 38.0141 26.6888H37.3288C36.8219 24.3122 35.9211 22.0371 34.6638 19.9576C33.1571 17.1023 31.5977 14.1533 31.5977 10.5981C31.5977 8.26798 30.6721 6.03334 29.0244 4.38573C27.3768 2.73812 25.1422 1.8125 22.8121 1.8125C20.482 1.8125 18.2474 2.73812 16.5998 4.38573C14.9522 6.03334 14.0266 8.26798 14.0266 10.5981C13.8186 13.8377 12.7858 16.9703 11.0263 19.6984C9.71086 21.8511 8.78403 24.2182 8.28813 26.6917H7.61017C7.06621 26.6918 6.533 26.8433 6.07032 27.1293C5.60764 27.4154 5.23376 27.8246 4.99061 28.3112L2.46623 33.3585C2.34453 33.6027 2.29348 33.876 2.31884 34.1477C2.34419 34.4194 2.44494 34.6785 2.60973 34.896L8.50923 42.6946C9.18013 43.4997 10.1167 44.0384 11.15 44.2135C12.1832 44.3885 13.245 44.1885 14.1437 43.6493L16.8877 42.0035C18.8116 42.5648 20.8082 42.8372 22.8121 42.8118C24.8176 42.8375 26.8158 42.5646 28.7409 42.002L31.4805 43.6464C32.16 44.0571 32.9386 44.2748 33.7326 44.276C34.3892 44.2727 35.037 44.1241 35.6294 43.8408C36.2218 43.5575 36.7442 43.1466 37.1589 42.6375L43.016 34.8945C43.1807 34.6767 43.2812 34.4172 43.3063 34.1453C43.3314 33.8734 43.28 33.5999 43.158 33.3556ZM32.075 21.3252C33.074 23.0023 33.8424 24.8064 34.3593 26.6888H31.214C30.8461 25.3596 30.366 24.0639 29.7791 22.8158C29.2288 21.6691 28.7975 20.469 28.492 19.2343C29.0495 18.5881 29.5414 17.8882 29.9606 17.1448L30.0177 17.0393C30.6275 18.5032 31.3143 19.9338 32.075 21.3252ZM16.9551 29.6334C17.068 27.6624 17.6039 25.7387 18.5262 23.9931C18.9011 23.1409 19.2818 22.2726 19.5893 21.3589C20.5491 21.9809 21.6684 22.3119 22.8121 22.3119C23.9559 22.3119 25.0752 21.9809 26.035 21.3589C26.3424 22.2726 26.7232 23.1409 27.098 23.9946C28.0201 25.7397 28.556 27.6629 28.6692 29.6334C28.6692 31.5194 28.0615 34.0262 22.8121 34.0262C17.5627 34.0262 16.9551 31.5194 16.9551 29.6334ZM26.4874 17.0774C26.0717 17.6989 25.5294 18.2255 24.896 18.623C24.2627 19.0204 23.5526 19.2796 22.8121 19.3836C22.0716 19.2794 21.3614 19.02 20.728 18.6223C20.0947 18.2246 19.5524 17.6977 19.1368 17.0759C21.517 16.2475 24.1072 16.2475 26.4874 17.0759V17.0774ZM16.9551 10.5981C16.9551 9.04467 17.5722 7.55491 18.6706 6.45651C19.769 5.3581 21.2587 4.74102 22.8121 4.74102C24.3655 4.74102 25.8553 5.3581 26.9537 6.45651C28.0521 7.55491 28.6692 9.04467 28.6692 10.5981C28.6754 12.1435 28.9057 13.6799 29.353 15.1592C28.6696 14.7807 27.95 14.4717 27.2049 14.2367V10.5981H24.2764V13.6056C23.3031 13.4998 22.3212 13.4998 21.3479 13.6056V10.5981H18.4193V14.2367C17.6681 14.4732 16.9429 14.7857 16.2552 15.1695C16.7131 13.6886 16.949 12.1481 16.9551 10.5981ZM13.6092 21.0822C14.3401 19.7605 15.0019 18.4018 15.5919 17.0115L15.6636 17.1433C16.0827 17.8872 16.5747 18.5876 17.1323 19.2343C16.8267 20.4685 16.3954 21.6681 15.8452 22.8144C15.258 24.0634 14.778 25.36 14.4102 26.6903H11.2503C11.754 24.7145 12.5485 22.8244 13.6078 21.0822H13.6092ZM15.6153 39.3517L12.637 41.1381C12.3488 41.3162 12.0071 41.3874 11.6718 41.3392C11.3365 41.291 11.0287 41.1266 10.8023 40.8746L5.49285 33.8549L7.61017 29.6203H13.0367L16.2083 37.5185C16.3467 37.8442 16.3629 38.209 16.254 38.5458C16.1451 38.8826 15.9183 39.1687 15.6153 39.3517ZM19.0065 39.523C19.3602 38.5182 19.331 37.4182 18.9245 36.4335C20.1873 36.7995 21.4975 36.9752 22.8121 36.9547C24.1272 36.9755 25.438 36.7998 26.7012 36.4335C26.3 37.4194 26.2719 38.5178 26.6221 39.523C24.1068 40.003 21.5233 40.003 19.008 39.523H19.0065ZM34.8644 40.8174C34.6415 41.0865 34.3294 41.2666 33.9849 41.3249C33.6403 41.3832 33.2863 41.3159 32.9873 41.1352L30.009 39.3488C29.7024 39.1615 29.4745 38.8691 29.3678 38.5261C29.2611 38.183 29.2829 37.8129 29.4291 37.4848L32.5875 29.6173H38.0126L40.1299 33.852L34.8644 40.8174Z" fill="#C1C4D6"/>
</svg>
