<svg width="45" height="45" viewBox="0 0 45 45" fill="none" xmlns="http://www.w3.org/2000/svg">
<path d="M22.5 40.5C23.0063 40.5 23.508 40.4775 24.003 40.4393C23.2059 40.3047 22.4597 39.9581 21.8425 39.436C21.2254 38.9138 20.76 38.2353 20.4953 37.4715C19.6133 36.7853 18.7335 35.6333 17.9528 33.957C17.4245 32.8039 17.0028 31.6049 16.6928 30.375H20.25V28.125H16.2135C15.9009 26.2664 15.7458 24.3847 15.75 22.5C15.75 20.5133 15.9143 18.6188 16.2135 16.875H28.7865C29.0858 18.6188 29.25 20.5133 29.25 22.5H31.5C31.5 20.5425 31.3493 18.648 31.0658 16.875H37.215C37.8833 18.621 38.25 20.52 38.25 22.5H40.5C40.5 18.9399 39.4443 15.4598 37.4665 12.4997C35.4886 9.53966 32.6774 7.23255 29.3883 5.87018C26.0992 4.5078 22.48 4.15134 18.9884 4.84587C15.4967 5.54041 12.2894 7.25474 9.77209 9.77209C7.25474 12.2894 5.54041 15.4967 4.84587 18.9884C4.15134 22.48 4.5078 26.0992 5.87018 29.3883C7.23255 32.6774 9.53966 35.4886 12.4997 37.4665C15.4598 39.4443 18.9399 40.5 22.5 40.5V40.5ZM22.5 6.75001C23.9783 6.75001 25.6658 8.07751 27.0495 11.043C27.5378 12.0915 27.963 13.2975 28.3073 14.625H16.6928C17.037 13.2975 17.4623 12.0915 17.9528 11.043C19.332 8.07751 21.0195 6.75001 22.5 6.75001ZM15.912 10.0913C15.2476 11.5466 14.7327 13.0656 14.3753 14.625H8.85601C10.7555 11.342 13.7728 8.85184 17.3565 7.60951C16.8143 8.35201 16.3305 9.19351 15.912 10.0913ZM13.932 16.875C13.6408 18.7358 13.4964 20.6166 13.5 22.5C13.5 24.4575 13.6508 26.352 13.9343 28.125H7.78501C7.09882 26.3291 6.74801 24.4225 6.75001 22.5C6.75001 20.52 7.11676 18.621 7.78501 16.875H13.9343H13.932ZM14.3753 30.375C14.7713 32.0468 15.291 33.5745 15.912 34.9088C16.3305 35.8065 16.8143 36.648 17.3565 37.3905C13.7728 36.1482 10.7555 33.6581 8.85601 30.375H14.3775H14.3753ZM27.6435 7.60951C31.2274 8.85167 34.2446 11.3418 36.144 14.625H30.6225C30.265 13.0656 29.7501 11.5466 29.0858 10.0913C28.6851 9.21952 28.2014 8.38842 27.6413 7.60951H27.6435ZM22.5 27C22.5 26.4033 22.7371 25.831 23.159 25.409C23.581 24.9871 24.1533 24.75 24.75 24.75H40.5C41.0967 24.75 41.669 24.9871 42.091 25.409C42.513 25.831 42.75 26.4033 42.75 27V36C42.75 36.5967 42.513 37.169 42.091 37.591C41.669 38.013 41.0967 38.25 40.5 38.25H36V40.5H37.125C37.4234 40.5 37.7095 40.6185 37.9205 40.8295C38.1315 41.0405 38.25 41.3266 38.25 41.625C38.25 41.9234 38.1315 42.2095 37.9205 42.4205C37.7095 42.6315 37.4234 42.75 37.125 42.75H28.125C27.8266 42.75 27.5405 42.6315 27.3295 42.4205C27.1185 42.2095 27 41.9234 27 41.625C27 41.3266 27.1185 41.0405 27.3295 40.8295C27.5405 40.6185 27.8266 40.5 28.125 40.5H29.25V38.25H24.75C24.1533 38.25 23.581 38.013 23.159 37.591C22.7371 37.169 22.5 36.5967 22.5 36V27Z" fill="#C1C4D6"/>
</svg>
