<svg width="58" height="54" viewBox="0 0 58 54" fill="none" xmlns="http://www.w3.org/2000/svg">
<path d="M57.8203 1.39629L56.5273 11.5077C53.3666 11.2903 50.9243 11.8701 49.2003 13.2473C47.4763 14.6245 46.3269 16.5453 45.7523 19.0098C45.1776 21.4742 45.0698 24.2648 45.429 27.3816H57.8203V53.5844H34.0075V25.2071C34.0075 16.654 36.0188 10.203 40.0415 5.85402C44.136 1.43253 50.0623 -0.053379 57.8203 1.39629ZM24.6332 1.39629L23.3402 11.5077C20.1795 11.2903 17.7371 11.8701 16.0131 13.2473C14.2891 14.6245 13.1398 16.5453 12.5651 19.0098C11.9904 21.4742 11.8827 24.2648 12.2419 27.3816H24.6332V53.5844H0.820312V25.2071C0.820312 16.654 2.83165 10.203 6.85434 5.85402C10.9489 1.43253 16.8751 -0.053379 24.6332 1.39629Z" fill="#C1C4D6"/>
</svg>
