<?xml version="1.0" standalone="no"?>
<!DOCTYPE svg PUBLIC "-//W3C//DTD SVG 20010904//EN"
 "http://www.w3.org/TR/2001/REC-SVG-20010904/DTD/svg10.dtd">
<svg version="1.0" xmlns="http://www.w3.org/2000/svg"
 width="570.000000pt" height="570.000000pt" viewBox="0 0 570.000000 570.000000"
 preserveAspectRatio="xMidYMid meet">

<g transform="translate(0.000000,570.000000) scale(0.100000,-0.100000)"
fill="#000000" stroke="none">
<path d="M2319 5221 c9 -6 10 -14 3 -27 -6 -11 -13 -41 -17 -69 -9 -58 -22
-88 -37 -83 -6 2 -12 13 -13 24 -4 55 -17 94 -30 94 -8 0 -15 5 -15 11 0 6 -7
4 -15 -5 -16 -15 -24 -114 -11 -134 7 -12 -12 -53 -31 -65 -7 -4 -13 -28 -13
-52 0 -25 -5 -45 -10 -45 -6 0 -8 -11 -4 -25 5 -20 2 -25 -14 -25 -11 0 -25
-7 -32 -15 -9 -11 -17 -12 -30 -5 -28 15 -40 12 -40 -11 0 -14 -5 -19 -17 -17
-13 2 -20 16 -24 48 -5 45 -5 45 -17 18 -12 -29 -31 -35 -62 -18 -18 9 -18 8
-5 -17 8 -14 11 -31 8 -37 -4 -6 1 -5 11 3 24 20 41 1 22 -25 -15 -19 -15 -18
-33 6 -10 13 -21 34 -24 45 -4 15 -12 2 -28 -49 -16 -46 -20 -71 -13 -75 6 -3
23 -24 38 -46 24 -36 26 -44 16 -80 -8 -31 -7 -45 4 -68 11 -20 12 -32 5 -41
-6 -7 -7 -16 -3 -20 4 -4 2 -7 -3 -6 -53 11 -46 -36 10 -68 14 -8 16 -11 5
-12 -8 0 -21 -9 -28 -20 -7 -11 -18 -20 -26 -20 -18 0 -46 33 -46 53 0 9 -4
17 -9 17 -5 0 -15 17 -21 38 -7 20 -16 41 -21 47 -14 14 -11 48 7 73 9 13 14
25 12 27 -2 2 -36 -16 -77 -41 -40 -24 -76 -44 -79 -44 -9 0 -116 -83 -129
-99 -7 -9 -18 -27 -25 -41 -7 -14 -25 -37 -41 -52 -15 -15 -30 -41 -33 -57 -4
-20 -11 -28 -21 -24 -9 4 -18 -5 -26 -26 -6 -17 -15 -31 -19 -31 -4 0 -8 -7
-8 -15 0 -21 17 -19 23 4 3 12 13 19 31 19 25 0 26 -2 11 -18 -8 -9 -15 -23
-15 -31 0 -18 -28 -59 -41 -59 -5 0 -9 9 -9 20 0 13 -7 20 -20 20 -13 0 -20 7
-20 20 0 16 -7 20 -34 20 -21 0 -36 6 -40 15 -3 9 0 15 9 15 17 0 18 8 5 70
-10 51 5 168 27 212 17 35 17 43 -1 29 -8 -7 -22 -41 -31 -76 -24 -87 -45
-105 -46 -39 l-1 49 -14 -34 c-8 -18 -20 -70 -25 -115 -20 -165 -40 -261 -59
-286 l-20 -25 0 33 c0 17 -4 32 -10 32 -5 0 -10 -5 -10 -10 0 -6 -7 -27 -17
-48 -9 -20 -15 -41 -14 -46 1 -5 -7 -18 -18 -30 -12 -13 -21 -38 -23 -65 -2
-27 -9 -46 -17 -49 -12 -4 -13 11 -7 92 3 54 7 101 7 104 5 30 -3 92 -10 88
-5 -3 -15 -35 -22 -72 -13 -65 -41 -124 -38 -79 1 11 1 29 0 40 -3 42 -18 -10
-24 -84 -3 -41 -11 -79 -17 -85 -9 -8 -10 9 -7 64 3 41 10 172 16 290 6 118
13 230 15 248 3 17 2 32 -2 32 -4 0 -17 -82 -29 -182 -32 -257 -47 -257 -40 1
3 112 2 200 -2 195 -5 -5 -14 -47 -21 -93 -6 -46 -15 -93 -20 -105 -5 -11 -11
-34 -15 -49 -3 -15 -10 -25 -15 -22 -6 4 -9 64 -7 143 1 106 -1 137 -11 137
-7 0 -17 7 -22 15 -6 10 -10 -128 -10 -383 0 -333 2 -403 15 -427 10 -19 12
-36 6 -52 -7 -18 -1 -32 25 -67 19 -24 34 -53 34 -65 -1 -40 -21 -111 -43
-146 -12 -19 -20 -45 -19 -57 2 -13 -1 -23 -7 -23 -8 0 -11 -121 -11 -397 0
-362 2 -402 19 -457 20 -64 55 -302 46 -316 -6 -9 12 -61 23 -70 9 -7 30 -61
56 -145 20 -67 71 -160 101 -185 8 -6 23 -9 34 -5 21 6 24 24 7 37 -6 4 2 10
17 13 14 4 38 23 53 42 l27 36 -29 -7 c-27 -7 -27 -6 -14 11 25 30 41 63 31
63 -5 0 -23 -17 -41 -37 l-32 -36 7 44 c8 51 14 58 86 108 53 37 54 38 62 101
8 67 27 100 58 100 10 0 37 20 60 44 47 51 92 67 118 42 14 -15 14 -18 1 -26
-8 -5 -11 -12 -7 -16 4 -4 18 3 31 16 20 18 32 21 58 16 26 -5 39 -1 55 13 16
15 30 19 57 14 20 -3 33 -10 30 -15 -3 -5 -19 -6 -36 -3 -28 7 -29 6 -17 -14
11 -17 10 -23 -8 -43 -63 -70 -49 -106 17 -44 36 34 57 46 80 46 38 0 40 -22
3 -41 -43 -21 -79 -64 -107 -124 -8 -16 -24 -36 -35 -44 -12 -9 -17 -19 -12
-25 18 -24 18 -60 0 -113 -27 -78 -121 -253 -132 -246 -6 4 -7 1 -2 -7 4 -7 3
-15 -2 -19 -5 -3 -13 -20 -16 -37 l-6 -31 107 -18 c115 -18 171 -35 140 -42
-10 -3 -18 -8 -18 -12 0 -9 -58 -15 -126 -15 -38 0 -59 7 -80 23 -27 21 -29
21 -41 5 -7 -10 -13 -23 -13 -30 0 -6 -7 -18 -17 -25 -9 -8 -22 -29 -30 -47
-11 -26 -17 -31 -27 -23 -11 9 -18 1 -36 -36 -25 -55 -57 -93 -78 -93 -8 0
-30 -13 -48 -30 -42 -36 -82 -49 -95 -29 -5 8 -7 19 -4 26 2 7 -29 -6 -70 -27
-41 -22 -101 -47 -132 -56 -32 -9 -61 -22 -65 -28 -10 -15 -10 -76 0 -76 5 0
26 13 48 30 53 40 76 38 132 -13 54 -49 240 -186 322 -237 30 -18 91 -56 135
-83 76 -48 266 -147 280 -147 3 0 27 -10 53 -22 26 -11 72 -29 102 -39 l55
-17 -62 -1 c-57 -1 -74 5 -240 83 -256 121 -368 187 -547 325 -54 42 -106 81
-115 88 -14 10 -28 3 -91 -45 -94 -72 -100 -93 -38 -147 60 -52 287 -201 388
-255 l84 -45 -106 -3 -106 -3 -59 39 c-92 59 -164 112 -206 151 l-39 36 4 -91
c3 -104 19 -134 70 -134 22 0 28 -5 28 -21 0 -11 13 -34 29 -50 l30 -29 2101
2 2102 3 19 24 c19 23 19 75 19 2400 l0 2378 -22 21 c-13 11 -35 24 -50 27
-19 5 -28 14 -28 27 0 10 -11 30 -25 43 l-24 25 -305 0 -305 0 -9 -32 c-5 -18
-8 -35 -6 -37 7 -8 34 22 34 36 0 9 8 13 23 11 17 -2 23 -11 28 -43 3 -22 15
-57 27 -78 26 -44 21 -58 -33 -105 -39 -35 -41 -39 -21 -61 13 -15 20 -56 17
-105 -1 -13 -4 -16 -13 -9 -7 6 -26 13 -41 17 -22 5 -27 11 -22 26 8 24 -7 26
-26 4 -12 -14 -9 -20 16 -40 17 -13 35 -24 40 -24 20 -1 -40 -29 -62 -30 -13
0 -23 -4 -23 -10 0 -5 4 -10 10 -10 5 0 16 -16 24 -35 13 -31 13 -39 0 -70
-15 -37 -35 -47 -32 -17 4 53 -3 83 -18 80 -27 -5 -42 -37 -24 -48 12 -8 12
-10 1 -10 -8 0 -11 -3 -8 -7 10 -9 -13 -33 -30 -33 -11 0 -13 7 -9 24 4 16 1
26 -10 30 -8 3 -13 9 -10 14 2 4 7 41 10 82 4 41 12 88 18 103 6 15 8 31 4 34
-3 4 -33 9 -66 11 -55 4 -61 7 -67 31 -8 30 -10 109 -3 131 3 10 -1 14 -14 13
-34 -2 -1 15 59 31 33 9 65 17 72 18 6 1 15 19 18 40 4 21 11 40 16 44 35 21
-35 24 -599 24 -529 -1 -609 -3 -609 -15 0 -8 3 -13 5 -10 7 6 32 -15 32 -26
0 -5 -10 -9 -22 -9 -12 0 -18 3 -15 7 10 9 -25 32 -50 33 -12 0 -25 5 -28 10
-9 15 -35 12 -41 -5 -10 -24 37 -85 64 -85 14 0 21 -4 17 -10 -4 -6 -14 -10
-23 -9 -10 0 -27 -2 -40 -6 -18 -6 -22 -13 -18 -29 3 -11 6 -24 6 -28 0 -5 6
-8 13 -8 33 0 74 -73 46 -82 -9 -3 -8 -10 1 -28 10 -19 10 -25 1 -28 -7 -2
-24 -15 -39 -28 -27 -23 -27 -23 -3 -17 22 6 23 4 17 -23 -4 -16 -10 -66 -13
-111 -4 -65 -2 -90 11 -117 20 -43 21 -83 1 -102 -8 -9 -15 -25 -15 -36 0 -12
-8 -22 -21 -25 -12 -3 -18 -11 -15 -19 3 -8 0 -14 -6 -14 -9 0 -9 -3 0 -12 9
-9 17 -10 30 -2 15 10 20 7 29 -13 10 -20 9 -24 -2 -19 -8 3 -22 -5 -30 -17
l-16 -22 -16 22 c-17 26 -26 103 -12 103 5 0 9 6 9 13 0 8 10 18 22 24 22 9
21 11 -19 37 -48 32 -65 76 -40 104 16 18 13 72 -4 72 -5 0 -9 20 -9 44 0 34
6 52 25 72 25 27 25 47 0 38 -21 -8 -28 33 -29 170 -1 73 -7 138 -15 164 -13
40 -16 42 -53 42 l-38 0 0 -219 c0 -131 -4 -222 -10 -226 -13 -8 -20 29 -18
110 1 39 1 130 0 203 l-2 132 -45 0 c-28 0 -47 -5 -50 -12 -2 -7 -6 -51 -9
-98 -8 -152 -16 -224 -27 -236 -6 -7 -7 -19 -3 -26 5 -10 4 -10 -5 -2 -7 6
-20 53 -29 104 -16 92 -16 92 7 135 13 24 24 63 25 87 l1 43 -90 3 c-55 1 -85
-1 -76 -7z m2611 -171 c0 -5 -7 -10 -15 -10 -8 0 -15 5 -15 10 0 6 7 10 15 10
8 0 15 -4 15 -10z m2 -72 c-11 -11 -25 -17 -31 -14 -16 10 -14 26 4 26 8 0 20
10 27 23 11 20 12 20 16 3 2 -10 -5 -27 -16 -38z m-2422 -189 c0 -15 -4 -31
-10 -34 -5 -3 -10 -15 -10 -25 0 -11 -9 -24 -20 -30 -17 -9 -18 -14 -8 -35 8
-17 8 -32 1 -47 -6 -13 -7 -32 -2 -43 14 -37 10 -43 -25 -41 -44 4 -56 12 -56
40 0 13 -7 29 -15 36 -23 20 -18 46 13 59 15 6 34 26 41 44 8 17 25 45 38 60
12 16 23 38 23 49 0 17 2 18 15 8 8 -7 15 -25 15 -41z m-420 -47 c0 -13 -12
-22 -22 -16 -10 6 -1 24 13 24 5 0 9 -4 9 -8z m560 -103 c0 -110 -14 -127 -22
-27 -6 71 0 128 13 128 5 0 9 -45 9 -101z m-630 7 c0 -15 -37 -32 -47 -22 -3
3 -3 12 0 21 8 19 47 20 47 1z m82 -8 c15 1 28 -2 28 -8 0 -5 -6 -10 -12 -11
-7 0 -25 -2 -40 -4 -15 -2 -30 1 -33 6 -9 14 5 30 18 22 6 -4 24 -6 39 -5z
m2076 -87 c3 -8 -1 -12 -9 -9 -7 2 -15 10 -17 17 -3 8 1 12 9 9 7 -2 15 -10
17 -17z m142 -44 c0 -20 -25 1 -28 24 -2 23 -2 23 13 5 8 -11 15 -24 15 -29z
m-1670 -99 c0 -67 -2 -119 -4 -117 -10 11 -16 239 -6 239 6 0 10 -45 10 -122z
m-187 77 c9 -8 13 -24 10 -35 -6 -21 -6 -21 -29 1 -13 12 -24 28 -24 36 0 17
25 17 43 -2z m-826 -105 c-1 -33 1 -61 4 -63 4 -1 9 -11 13 -23 5 -16 0 -23
-19 -32 -14 -7 -27 -12 -28 -12 -5 0 1 46 8 62 4 10 5 42 2 73 -3 40 -1 55 8
55 10 0 13 -17 12 -60z m297 45 c3 -8 1 -15 -4 -15 -6 0 -10 7 -10 15 0 8 2
15 4 15 2 0 6 -7 10 -15z m16 -100 c0 -37 -5 -67 -11 -71 -8 -5 -6 -10 5 -16
23 -13 20 -42 -8 -75 -28 -32 -50 -23 -44 18 2 13 -4 29 -12 36 -13 11 -12 12
9 13 19 0 22 4 18 22 -4 12 -1 28 6 36 6 8 12 22 12 31 1 9 2 31 3 49 3 60 22
23 22 -43z m-370 35 c0 -11 -4 -20 -9 -20 -5 0 -11 9 -14 20 -3 13 0 20 9 20
8 0 14 -9 14 -20z m1683 -101 c74 -20 125 -86 98 -128 -15 -23 0 -51 33 -61
31 -10 31 -10 -7 -6 -22 3 -35 1 -31 -5 3 -5 2 -9 -3 -8 -10 3 -37 -7 -83 -30
-34 -17 -36 -17 -54 1 -15 13 -35 18 -83 18 -35 0 -63 -4 -63 -9 0 -5 5 -11
11 -13 6 -2 -7 -15 -28 -28 -49 -32 -53 -54 -12 -74 66 -33 169 -14 169 31 0
26 25 42 41 26 6 -6 12 -49 14 -97 3 -77 2 -87 -17 -100 -18 -13 -25 -13 -54
2 -23 11 -34 23 -34 37 0 29 -22 27 -77 -4 -51 -29 -68 -70 -58 -139 10 -66
21 -77 55 -52 l28 20 21 -34 c23 -37 38 -46 79 -46 l27 -1 -23 -19 c-13 -11
-40 -22 -59 -26 -33 -6 -39 -3 -67 29 -97 111 -126 151 -140 194 -18 57 -36
334 -25 378 10 37 103 129 144 143 40 14 150 15 198 1z m-1555 -22 c3 -12 -3
-17 -21 -17 -31 0 -40 10 -25 27 15 18 42 12 46 -10z m202 -116 c0 -6 -4 -13
-10 -16 -5 -3 -10 1 -10 9 0 9 5 16 10 16 6 0 10 -4 10 -9z m871 -48 c-12 -20
-14 -14 -5 12 4 9 9 14 11 11 3 -2 0 -13 -6 -23z m-1572 -49 c21 -27 27 -59
13 -68 -4 -2 -23 -1 -42 3 -41 8 -52 41 -24 72 22 25 29 24 53 -7z m111 -30
c0 -11 8 -15 28 -12 22 2 28 -1 30 -21 5 -35 -12 -46 -28 -16 -7 14 -22 25
-32 25 -11 0 -18 7 -18 20 0 11 5 20 10 20 6 0 10 -7 10 -16z m3161 -135 c12
-16 23 -20 43 -17 20 4 31 0 39 -13 7 -11 18 -19 25 -19 23 0 -5 -36 -38 -50
-22 -9 -30 -19 -30 -36 0 -31 -40 -51 -72 -38 -36 14 -131 6 -124 -11 2 -7 -2
-16 -10 -19 -16 -6 -20 -101 -5 -110 12 -8 -23 -75 -48 -92 -32 -23 -34 0 -6
78 14 39 23 78 20 86 -3 9 0 19 7 24 11 8 11 11 0 15 -23 9 -54 47 -42 51 7 3
17 -1 23 -7 23 -23 28 -10 7 19 -16 23 -19 34 -10 49 5 11 10 29 10 40 0 13 8
23 24 27 18 4 22 11 18 26 -3 14 -1 19 6 14 7 -4 12 -1 12 8 0 8 8 19 17 25
23 12 112 -21 134 -50z m-1061 1 c0 -29 -5 -42 -21 -50 -17 -9 -26 -7 -55 15
-19 14 -34 29 -34 33 1 25 29 39 83 41 25 1 27 -2 27 -39z m-2499 -157 c-12
-20 -14 -14 -5 12 4 9 9 14 11 11 3 -2 0 -13 -6 -23z m2348 -13 c11 -6 9 -9
-8 -15 -32 -10 -107 3 -122 21 -11 14 -5 15 52 8 35 -3 70 -10 78 -14z m1162
-30 c24 -13 26 -50 2 -50 -17 0 -63 37 -63 52 0 11 38 10 61 -2z m-1222 -16
c10 -9 -35 -3 -49 6 -11 8 -7 9 15 4 17 -4 32 -8 34 -10z m1156 -6 c14 -6 25
-15 25 -19 0 -9 -39 1 -45 12 -3 4 -13 5 -22 2 -11 -4 -14 -3 -9 5 9 15 18 15
51 0z m305 -4 c-25 -8 -76 -21 -115 -30 -38 -8 -79 -17 -90 -20 -14 -4 -17 -3
-10 4 6 6 55 22 110 35 112 28 179 34 105 11z m-230 -55 c0 -6 -4 -7 -10 -4
-5 3 -10 11 -10 16 0 6 5 7 10 4 6 -3 10 -11 10 -16z m254 4 c8 -20 3 -25 -28
-27 -14 0 -26 -7 -26 -14 0 -31 -23 -50 -55 -45 -22 3 -35 0 -45 -13 -12 -13
-12 -18 -2 -21 6 -3 10 -9 6 -14 -6 -10 10 -10 46 0 17 5 31 3 43 -7 16 -14
17 -14 11 1 -7 20 4 21 29 3 21 -16 22 -26 2 -26 -8 0 -15 -9 -15 -20 0 -11 5
-20 10 -20 6 0 10 5 10 11 0 5 4 7 10 4 6 -4 5 -11 -2 -19 -14 -15 -35 -6 -70
27 -10 10 -23 15 -28 12 -6 -4 -16 -3 -22 2 -20 12 -38 12 -64 1 -29 -14 -38
-36 -22 -56 7 -9 -3 -5 -22 8 -36 25 -53 42 -71 73 -9 16 -6 17 33 11 24 -3
39 -2 33 3 -5 4 -11 30 -11 56 -1 41 1 47 15 41 29 -13 141 -1 127 14 -7 7 47
26 81 30 12 1 24 -6 27 -15z m-360 -9 c3 -8 2 -12 -4 -9 -6 3 -10 10 -10 16 0
14 7 11 14 -7z m86 -10 c6 -14 10 -41 10 -60 0 -26 -4 -34 -17 -34 -27 0 -41
12 -53 45 -9 24 -8 31 4 41 9 6 16 16 16 23 0 22 31 11 40 -15z m474 -23 c-9
-10 -26 18 -18 30 5 9 9 8 14 -7 4 -10 6 -21 4 -23z m-2224 10 c0 -5 -7 -14
-15 -21 -11 -9 -15 -32 -15 -82 0 -66 -1 -68 -20 -58 -11 6 -20 18 -20 26 0 8
-4 12 -10 9 -5 -3 -10 -24 -10 -46 0 -29 -4 -39 -16 -39 -13 0 -15 -7 -9 -42
4 -24 4 -40 0 -36 -4 4 -10 30 -14 59 -6 48 -7 50 -17 28 -13 -28 -28 -80 -45
-159 -21 -97 -27 -111 -29 -60 0 38 -3 42 -13 29 -7 -9 -18 -14 -26 -11 -19 6
-31 -17 -31 -65 0 -23 -3 -44 -7 -46 -7 -3 -227 19 -246 26 -18 6 392 407 417
407 3 0 3 -21 0 -47 l-5 -48 23 52 c32 73 108 160 108 124z m2190 -3 c-1 -19
-37 -64 -46 -56 -3 4 -3 15 1 25 5 10 7 24 6 31 -1 6 7 12 19 12 11 0 20 -6
20 -12z m38 -51 c13 -4 12 -5 -4 -6 -22 -1 -39 21 -26 34 4 4 8 0 10 -8 2 -9
11 -18 20 -20z m52 24 c0 -12 -20 -25 -27 -18 -7 7 6 27 18 27 5 0 9 -4 9 -9z
m-310 -51 c0 -5 -4 -10 -9 -10 -6 0 -13 5 -16 10 -3 6 1 10 9 10 9 0 16 -4 16
-10z m-259 -79 l32 -20 -28 -7 c-26 -6 -27 -8 -10 -15 11 -4 32 -8 48 -8 32
-1 36 -16 6 -24 -31 -8 -13 -27 25 -27 37 0 62 21 53 44 -9 23 19 8 31 -17 37
-75 51 -127 32 -127 -5 0 -10 9 -10 20 0 25 -30 100 -40 100 -4 0 -13 -7 -20
-15 -7 -8 -16 -15 -21 -15 -5 0 -23 -9 -41 -20 -29 -17 -30 -20 -12 -26 10 -4
22 -12 26 -18 4 -5 23 -10 43 -9 32 1 35 -1 30 -20 -11 -36 -35 -86 -45 -92
-6 -3 -10 -21 -10 -40 0 -19 -4 -36 -9 -40 -10 -6 -43 -67 -39 -70 2 -1 12 -7
24 -13 16 -9 20 -18 16 -44 -5 -31 -4 -32 14 -18 18 15 18 14 0 -13 -17 -28
-17 -30 2 -50 10 -12 22 -29 26 -37 4 -8 -4 -1 -19 15 l-26 30 6 -55 c3 -30
12 -73 20 -95 13 -38 12 -41 -7 -56 l-21 -16 24 -6 c13 -3 71 -11 129 -17 100
-11 150 -28 150 -51 0 -6 -3 -9 -7 -7 -5 2 -19 9 -33 15 -14 7 -104 21 -200
32 -96 11 -384 45 -639 76 -443 54 -465 56 -478 39 -12 -17 -13 -16 -13 4 0
14 8 23 23 27 12 2 146 -10 297 -29 236 -28 276 -31 285 -19 33 47 37 49 31
16 -3 -18 -1 -33 4 -33 17 0 21 85 7 153 l-14 67 36 -1 c20 0 57 -4 83 -8 54
-9 58 -3 58 82 l0 47 21 -21 c16 -16 26 -49 39 -123 10 -55 22 -113 28 -128
12 -29 32 -46 32 -26 -1 32 -31 181 -40 198 -7 14 -7 20 0 20 5 0 9 3 9 8 -4
21 3 24 16 6 14 -17 15 -14 12 39 -4 56 -17 93 -17 47 0 -37 -17 -11 -23 35
-8 57 -17 77 -34 71 -11 -5 -11 -2 -2 17 20 36 60 89 103 135 26 27 37 45 30
50 -13 9 -44 70 -44 89 0 18 14 16 51 -6z m217 -111 c-2 -5 -11 -2 -22 5 -12
9 -16 20 -12 31 6 16 8 15 22 -5 9 -12 14 -26 12 -31z m-2027 -180 c-1 -106
-10 -150 -31 -150 -13 0 -2 196 12 237 7 18 14 31 16 29 2 -3 3 -55 3 -116z
m1977 -27 c-3 -27 -28 -67 -36 -58 -4 4 30 84 36 85 2 0 2 -12 0 -27z m-2112
-116 c4 -4 -17 -154 -87 -607 -12 -80 -25 -149 -29 -153 -4 -4 -94 8 -201 27
-469 84 -664 119 -666 120 -1 0 3 23 8 50 5 26 29 181 55 345 39 253 48 298
66 312 18 14 54 11 435 -37 228 -29 417 -55 419 -57z m2387 40 c2 -12 8 -31
12 -41 6 -14 5 -17 -4 -12 -13 8 -81 110 -81 121 0 16 68 -48 73 -68z m-606
41 c-3 -8 -6 -5 -6 6 -1 11 2 17 5 13 3 -3 4 -12 1 -19z m303 -53 c-7 -9 -15
-13 -19 -10 -3 3 1 10 9 15 21 14 24 12 10 -5z m-32 -33 c2 -7 -6 -12 -20 -11
-12 0 -17 3 -10 6 6 2 9 9 6 15 -4 6 -1 9 6 6 8 -2 16 -10 18 -16z m-1916
-152 c-5 -86 -25 -73 -33 21 -4 45 -2 82 4 94 10 18 12 17 21 -17 6 -20 9 -64
8 -98z m2375 108 c-3 -8 -6 -5 -6 6 -1 11 2 17 5 13 3 -3 4 -12 1 -19z m-357
-133 c0 -8 -4 -15 -10 -15 -5 0 -10 7 -10 15 0 8 5 15 10 15 6 0 10 -7 10 -15z
m-44 -62 c15 -20 23 -33 16 -29 -13 8 -56 66 -49 66 3 0 17 -17 33 -37z
m-1146 -85 c0 -17 -3 -19 -9 -9 -7 10 -21 12 -56 6 -66 -9 -80 -15 -63 -26 10
-7 8 -9 -6 -9 -14 0 -17 -3 -10 -10 6 -6 43 -14 82 -17 40 -3 72 -9 72 -14 0
-4 -8 -6 -17 -4 -10 2 -46 6 -80 9 -52 5 -63 3 -63 -9 0 -8 -4 -15 -10 -15 -5
0 -10 6 -10 14 0 7 -3 29 -6 47 -4 19 -3 31 1 27 5 -4 14 -3 22 4 8 6 42 14
76 18 34 4 65 8 70 9 4 0 7 -9 7 -21z m-2330 -8 c0 -13 -11 -13 -30 0 -12 8
-11 10 8 10 12 0 22 -4 22 -10z m-7 -23 c18 -8 38 -21 46 -30 11 -14 11 -18
-3 -23 -9 -3 -13 -11 -9 -17 3 -6 1 -7 -6 -3 -6 4 -9 11 -6 16 3 4 -2 13 -10
20 -13 10 -15 9 -15 -9 0 -14 -4 -20 -11 -15 -7 4 -10 1 -7 -7 2 -8 17 -15 31
-17 27 -3 27 -4 27 -88 0 -52 4 -84 11 -84 5 0 7 5 4 10 -7 11 28 14 39 3 4
-4 19 -9 33 -11 15 -2 34 -7 42 -12 10 -6 1 -7 -24 -3 -87 15 -90 14 -91 -42
l0 -50 -35 2 -34 3 25 -16 25 -15 -25 6 c-91 24 -136 24 -191 2 -74 -30 -97
-48 -110 -86 -13 -38 -6 -50 16 -27 20 20 25 20 25 2 0 -7 -9 -16 -20 -19 -23
-6 -18 -33 9 -55 9 -7 14 -16 12 -20 -2 -4 24 -15 58 -26 34 -10 61 -19 59
-21 -7 -6 -155 17 -175 27 -24 12 -29 40 -14 80 4 13 11 52 15 87 7 58 6 63
-8 52 -13 -11 -16 -11 -16 2 0 8 8 17 18 19 16 5 17 15 10 124 -14 247 -14
237 2 241 12 4 12 3 1 -5 -20 -14 2 -23 42 -17 18 3 45 1 59 -4 18 -7 33 -6
52 4 24 13 28 12 33 -2 6 -14 7 -14 18 0 9 13 42 32 63 36 1 1 17 -5 35 -12z
m77 -77 c0 -5 -8 -10 -17 -10 -15 0 -16 2 -3 10 19 12 20 12 20 0z m1440 -44
c154 -19 458 -46 523 -46 26 0 47 -4 47 -10 0 -5 -4 -10 -9 -10 -5 0 -48 -38
-95 -84 -47 -47 -86 -82 -86 -79 0 3 -12 -6 -26 -20 -14 -15 -36 -29 -47 -33
-12 -4 -26 -13 -32 -20 -12 -15 -235 -27 -235 -12 0 5 -18 7 -40 4 -24 -3 -40
-1 -40 5 0 7 -21 10 -55 7 -39 -2 -55 1 -55 10 0 8 20 12 63 13 59 2 58 2 -31
12 -69 7 -92 13 -88 22 2 7 12 64 21 126 19 138 20 142 42 135 10 -3 74 -12
143 -20z m657 -33 c-3 -10 -5 -2 -5 17 0 19 2 27 5 18 2 -10 2 -26 0 -35z
m-1892 -40 c-11 -3 -23 -10 -27 -17 -5 -7 -8 -5 -8 7 0 12 7 17 28 16 21 -1
22 -2 7 -6z m-72 -21 c-3 -14 -12 -17 -41 -14 -57 5 -60 9 -22 20 54 16 69 15
63 -6z m153 -34 c-4 -27 -3 -36 2 -24 5 11 11 15 14 10 8 -13 -20 -74 -35 -75
-46 -5 -69 -4 -74 4 -3 5 -10 3 -15 -4 -7 -11 -11 -11 -15 -1 -2 6 -10 9 -16
5 -16 -10 -77 -10 -77 0 0 4 14 16 31 25 17 9 63 36 102 59 40 24 76 43 80 43
5 0 6 -19 3 -42z m1821 10 c-3 -8 -6 -5 -6 6 -1 11 2 17 5 13 3 -3 4 -12 1
-19z m10 -75 c-3 -10 -5 -2 -5 17 0 19 2 27 5 18 2 -10 2 -26 0 -35z m-2080
21 c-3 -3 -12 -4 -19 -1 -8 3 -5 6 6 6 11 1 17 -2 13 -5z m-51 -119 c16 -8 47
-15 69 -15 30 0 36 -3 25 -10 -8 -5 -33 -10 -55 -10 -27 0 -35 -3 -26 -9 11
-7 10 -11 -7 -20 -42 -23 -54 -15 -48 32 3 23 5 43 5 45 1 4 9 2 37 -13z
m1287 0 c-3 -9 -8 -14 -10 -11 -3 3 -2 9 2 15 9 16 15 13 8 -4z m-1463 -14 c0
-14 -6 -19 -20 -18 -33 2 -22 33 13 36 4 1 7 -8 7 -18z m80 9 l25 -7 -29 -12
c-40 -16 -82 -1 -59 22 8 8 30 7 63 -3z m1173 -104 c41 -9 23 -26 -21 -19 -20
3 -39 7 -41 9 -7 6 11 23 22 19 7 -2 25 -6 40 -9z m427 -65 c-8 -5 -26 -11
-40 -15 -21 -5 -20 -3 5 9 32 15 60 20 35 6z m-120 -51 c-19 -11 -42 -19 -50
-19 -8 0 3 9 25 19 53 24 70 24 25 0z m810 5 c0 -9 -6 -12 -15 -9 -8 4 -12 10
-9 15 8 14 24 10 24 -6z m-1567 -2 c-7 -2 -19 -2 -25 0 -7 3 -2 5 12 5 14 0
19 -2 13 -5z m-93 -13 c0 -5 -10 -10 -22 -9 -22 0 -22 1 -3 9 11 5 21 9 23 9
1 1 2 -3 2 -9z m150 0 c0 -5 -5 -10 -11 -10 -5 0 -7 5 -4 10 3 6 8 10 11 10 2
0 4 -4 4 -10z m-40 -25 c13 -16 0 -21 -15 -6 -6 5 -23 11 -40 14 -28 4 -28 4
6 6 22 0 42 -5 49 -14z m177 -1 c-3 -3 -12 -4 -19 -1 -8 3 -5 6 6 6 11 1 17
-2 13 -5z m473 -4 c12 -8 11 -10 -5 -9 -11 1 -31 5 -45 9 -24 8 -24 8 5 9 17
0 37 -4 45 -9z m-704 -16 c87 -17 134 -32 134 -44 0 -9 -106 -50 -130 -50 -10
0 -22 -4 -25 -10 -3 -5 -18 -10 -32 -10 -24 0 -25 1 -20 60 2 38 0 61 -7 64
-21 9 3 6 80 -10z m509 -39 c-35 -29 -29 -31 22 -10 19 8 47 15 62 14 19 -1
15 -4 -16 -11 -30 -6 -40 -13 -36 -23 3 -10 -1 -15 -12 -15 -9 0 -49 -17 -88
-37 -62 -33 -79 -38 -129 -35 -47 2 -62 -2 -78 -18 -11 -11 -20 -27 -20 -35 0
-26 29 -74 52 -86 21 -11 20 -12 -11 -36 -17 -13 -31 -33 -31 -44 0 -10 -1
-19 -3 -19 -27 0 -305 85 -313 95 -6 8 -16 15 -23 15 -11 0 -12 2 -17 57 l-2
33 54 -1 c38 -1 79 7 137 29 45 16 120 42 167 57 47 15 92 33 100 40 29 24
113 49 180 53 l35 2 -30 -25z m0 -212 c185 -64 285 -93 317 -93 15 0 28 -3 29
-7 0 -5 2 -23 5 -40 2 -18 0 -33 -5 -33 -17 0 -198 39 -359 78 -114 28 -170
46 -186 61 -12 11 -27 21 -34 21 -18 0 -26 22 -11 31 10 6 10 9 2 9 -7 0 -10
7 -6 16 9 24 98 9 248 -43z m2635 -102 c0 -12 -20 -25 -27 -18 -7 7 6 27 18
27 5 0 9 -4 9 -9z m-3514 -226 c-11 -8 -25 -15 -30 -15 -6 1 0 7 14 15 32 19
40 18 16 0z m-46 -25 c0 -5 -7 -10 -15 -10 -8 0 -15 -4 -15 -8 0 -4 -9 -8 -20
-9 -27 -2 -25 4 8 21 32 18 42 19 42 6z"/>
<path d="M4490 3460 c-8 -5 -10 -10 -5 -10 6 0 17 5 25 10 8 5 11 10 5 10 -5
0 -17 -5 -25 -10z"/>
<path d="M2321 3064 c0 -11 3 -14 6 -6 3 7 2 16 -1 19 -3 4 -6 -2 -5 -13z"/>
<path d="M4365 3270 c-3 -5 -1 -10 4 -10 6 0 11 5 11 10 0 6 -2 10 -4 10 -3 0
-8 -4 -11 -10z"/>
<path d="M4325 3214 c-15 -19 -28 -42 -29 -50 -1 -8 -8 -20 -14 -26 -15 -15
-16 -41 0 -32 8 5 9 0 6 -14 -4 -12 -2 -22 4 -22 5 0 6 -9 3 -20 -7 -21 10
-29 18 -7 2 6 2 40 -1 75 -4 53 -2 66 15 85 22 25 36 47 30 47 -3 0 -17 -16
-32 -36z"/>
<path d="M4376 3214 c-10 -26 -7 -44 8 -44 20 0 29 16 21 40 -8 24 -21 26 -29
4z"/>
<path d="M4394 3089 c-10 -11 -31 -27 -46 -35 -38 -20 -35 -34 15 -66 38 -24
42 -25 53 -10 6 10 12 21 12 26 0 5 6 13 14 17 10 7 9 9 -3 9 -20 0 -33 41
-16 52 8 5 9 10 1 18 -7 7 -16 4 -30 -11z"/>
<path d="M4339 2685 c-1 -8 -1 -24 -1 -35 0 -45 2 -48 42 -52 50 -5 53 12 9
65 -32 39 -48 46 -50 22z"/>
<path d="M4242 2648 c-18 -18 -15 -25 13 -30 28 -6 30 -1 11 24 -10 13 -15 15
-24 6z"/>
<path d="M1690 2975 c0 -8 4 -15 10 -15 5 0 7 7 4 15 -4 8 -8 15 -10 15 -2 0
-4 -7 -4 -15z"/>
<path d="M1720 2983 c8 -4 20 -13 27 -22 11 -15 12 -15 13 0 0 17 -20 30 -43
28 -7 0 -5 -3 3 -6z"/>
<path d="M1831 2954 c0 -11 3 -14 6 -6 3 7 2 16 -1 19 -3 4 -6 -2 -5 -13z"/>
<path d="M1900 2940 c0 -5 5 -10 11 -10 5 0 7 5 4 10 -3 6 -8 10 -11 10 -2 0
-4 -4 -4 -10z"/>
<path d="M1995 2940 c3 -5 8 -10 11 -10 2 0 4 5 4 10 0 6 -5 10 -11 10 -5 0
-7 -4 -4 -10z"/>
<path d="M2083 2925 c0 -9 4 -14 9 -13 5 2 10 8 10 13 0 5 -5 11 -10 13 -5 1
-9 -4 -9 -13z"/>
<path d="M2120 2920 c0 -13 5 -18 15 -14 8 4 15 10 15 14 0 4 -7 10 -15 14
-10 4 -15 -1 -15 -14z"/>
<path d="M2166 2915 c4 -8 12 -15 20 -15 8 0 14 7 14 15 0 8 -9 15 -20 15 -13
0 -18 -5 -14 -15z"/>
<path d="M2210 2905 c0 -8 6 -15 13 -15 8 0 14 7 14 15 0 8 -6 15 -14 15 -7 0
-13 -7 -13 -15z"/>
<path d="M2263 2899 c-1 -12 3 -19 10 -16 15 5 16 29 2 34 -6 2 -11 -6 -12
-18z"/>
<path d="M1530 2529 c-8 -53 -9 -84 -3 -90 6 -6 61 -12 124 -14 72 -3 103 -1
84 4 -16 5 -50 9 -74 10 -51 1 -48 11 6 21 l38 8 -47 1 c-44 1 -80 20 -41 22
13 1 11 3 -7 9 -14 4 -19 8 -12 9 10 1 10 5 -2 17 -22 21 -20 44 3 44 36 0 32
19 -6 29 -21 6 -41 11 -44 11 -4 0 -12 -36 -19 -81z"/>
<path d="M1810 2571 c0 -14 5 -19 14 -15 9 3 21 -5 31 -20 18 -28 40 -34 48
-13 3 6 10 -1 17 -18 10 -23 14 -26 17 -12 5 21 40 22 67 2 17 -13 17 -16 2
-61 -11 -33 -13 -52 -6 -65 12 -21 40 -15 40 10 0 14 -2 14 -10 1 -5 -8 -12
-11 -16 -8 -10 10 4 40 15 33 13 -7 17 2 25 58 6 36 4 47 -6 47 -8 0 -14 9
-15 21 -2 16 1 18 12 9 8 -7 15 -7 19 -1 8 13 -3 19 -54 27 -35 6 -45 4 -56
-11 -8 -10 -17 -15 -21 -11 -4 4 -1 11 7 16 22 14 11 18 -63 25 -63 6 -67 5
-67 -14z"/>
<path d="M2072 2419 c-12 -73 -19 -135 -17 -139 3 -5 23 -10 45 -12 33 -3 40
0 40 14 0 9 5 20 10 23 6 4 8 16 5 28 -4 15 -3 18 3 9 7 -11 11 -10 16 4 6 16
8 16 16 4 7 -10 10 -11 10 -2 0 6 5 12 10 12 6 0 10 -9 10 -21 0 -13 4 -18 13
-13 9 5 9 4 0 -6 -10 -11 -9 -18 5 -34 9 -11 12 -16 6 -13 -7 4 -14 0 -17 -8
-4 -10 6 -16 36 -23 23 -5 45 -6 49 -3 3 3 14 58 23 121 9 63 18 124 21 135 5
20 5 20 -10 1 -16 -19 -16 -19 -16 1 0 14 -6 22 -17 21 -10 0 -58 7 -108 16
-49 9 -95 16 -101 16 -7 0 -20 -53 -32 -131z m169 58 c-8 -8 -11 -7 -11 4 0 9
3 19 7 23 4 4 9 2 11 -4 3 -7 -1 -17 -7 -23z m69 19 c0 -3 -4 -8 -10 -11 -5
-3 -10 -1 -10 4 0 6 5 11 10 11 6 0 10 -2 10 -4z m-72 -66 c-7 -10 -14 -18
-15 -16 -6 6 9 36 18 36 5 0 4 -9 -3 -20z m-28 -55 c0 -5 -5 -3 -10 5 -5 8
-10 20 -10 25 0 6 5 3 10 -5 5 -8 10 -19 10 -25z"/>
<path d="M1830 2475 c0 -19 32 -17 36 3 1 7 0 8 -3 2 -3 -8 -9 -7 -19 1 -11 9
-14 8 -14 -6z"/>
<path d="M1903 2463 c4 -3 1 -13 -6 -21 -10 -13 -9 -14 3 -10 19 6 26 38 9 38
-7 0 -9 -3 -6 -7z"/>
<path d="M1910 2391 c0 -7 -4 -9 -10 -6 -5 3 -10 -1 -10 -9 0 -9 6 -16 13 -16
7 0 21 -16 30 -35 11 -23 24 -35 37 -35 11 0 20 5 20 11 0 5 5 7 10 4 16 -10
12 11 -5 25 -8 7 -15 18 -14 24 3 24 -2 37 -11 31 -5 -3 -10 -1 -10 6 0 8 -4
9 -13 0 -10 -8 -17 -7 -25 1 -9 9 -12 9 -12 -1z"/>
<path d="M2010 2330 c0 -5 5 -10 10 -10 6 0 10 5 10 10 0 6 -4 10 -10 10 -5 0
-10 -4 -10 -10z"/>
<path d="M2181 2264 c0 -11 3 -14 6 -6 3 7 2 16 -1 19 -3 4 -6 -2 -5 -13z"/>
<path d="M883 2550 c-30 -12 -29 -18 2 -12 14 2 25 8 25 13 0 5 -1 9 -2 8 -2
0 -13 -4 -25 -9z"/>
<path d="M848 2503 c7 -3 16 -2 19 1 4 3 -2 6 -13 5 -11 0 -14 -3 -6 -6z"/>
<path d="M792 2412 c-17 -14 -21 -25 -18 -57 2 -22 4 -53 5 -68 0 -16 5 -26
11 -22 6 3 10 -1 10 -10 0 -14 6 -16 27 -10 15 3 30 10 33 13 5 7 10 8 60 11
21 1 28 5 24 15 -6 15 12 30 36 31 10 0 16 12 18 33 3 31 2 32 -25 26 -15 -4
-35 -10 -44 -15 -9 -4 -33 -2 -57 6 -23 8 -48 12 -57 9 -12 -5 -14 -2 -8 12 3
11 11 22 16 25 5 4 5 9 0 12 -5 3 -18 -2 -31 -11z m148 -72 c0 -5 -5 -10 -11
-10 -5 0 -7 5 -4 10 3 6 8 10 11 10 2 0 4 -4 4 -10z"/>
<path d="M910 2420 c-9 -6 -10 -10 -3 -10 6 0 15 5 18 10 8 12 4 12 -15 0z"/>
<path d="M945 2410 c3 -5 8 -10 11 -10 2 0 4 5 4 10 0 6 -5 10 -11 10 -5 0 -7
-4 -4 -10z"/>
<path d="M1026 2308 c-34 -34 -25 -51 22 -42 22 5 32 12 32 25 0 11 -4 19 -9
19 -5 0 -11 6 -13 14 -2 9 -12 4 -32 -16z"/>
<path d="M1994 1769 c12 -8 25 -8 40 -1 18 9 16 11 -19 11 -33 0 -37 -1 -21
-10z"/>
<path d="M4190 5206 c0 -21 11 -46 20 -46 4 0 7 13 6 30 -1 29 -26 44 -26 16z"/>
<path d="M4367 5064 c-8 -8 1 -24 14 -24 5 0 9 7 9 15 0 15 -12 20 -23 9z"/>
<path d="M2017 4873 c-4 -3 -7 -11 -7 -17 0 -6 5 -5 12 2 6 6 9 14 7 17 -3 3
-9 2 -12 -2z"/>
<path d="M1458 4693 c7 -3 16 -2 19 1 4 3 -2 6 -13 5 -11 0 -14 -3 -6 -6z"/>
<path d="M1705 4690 c7 -11 55 -9 55 2 0 4 -14 8 -31 8 -17 0 -28 -4 -24 -10z"/>
<path d="M1472 4615 c2 -19 10 -31 21 -33 24 -5 22 21 -4 44 -21 19 -21 19
-17 -11z"/>
<path d="M1673 4620 c-27 -11 -30 -25 -8 -34 13 -5 14 -10 5 -28 -11 -22 -10
-22 4 -4 9 11 16 17 16 13 0 -4 14 0 31 9 18 9 44 14 58 11 14 -3 35 -1 46 3
17 7 15 9 -11 9 -17 1 -48 8 -67 16 -41 17 -44 17 -74 5z"/>
<path d="M756 4612 c-15 -25 -14 -112 2 -128 25 -26 32 -1 19 71 -8 42 -16 64
-21 57z"/>
<path d="M2770 4609 c1 -8 7 -25 15 -39 l14 -25 1 26 c0 15 -7 32 -15 39 -12
10 -15 10 -15 -1z"/>
<path d="M1168 4514 c-5 -4 -8 -21 -7 -38 0 -30 0 -30 10 -7 11 27 8 57 -3 45z"/>
<path d="M1472 4500 c-7 -11 -8 -20 -4 -20 5 0 6 -14 4 -32 l-5 -31 32 23 c39
27 47 45 31 65 -17 21 -43 19 -58 -5z"/>
<path d="M945 4079 c-4 -6 -5 -13 -2 -16 7 -7 27 6 27 18 0 12 -17 12 -25 -2z"/>
<path d="M1417 2133 c-4 -3 -7 -11 -7 -17 0 -6 5 -5 12 2 6 6 9 14 7 17 -3 3
-9 2 -12 -2z"/>
<path d="M1021 1305 c-1 -11 -4 -37 -7 -57 -4 -25 -3 -38 4 -38 16 0 26 68 14
93 -10 21 -11 21 -11 2z"/>
</g>
</svg>
