<svg width="57" height="57" viewBox="0 0 57 57" fill="none" xmlns="http://www.w3.org/2000/svg">
<g filter="url(#filter0_i_3539_164324)">
<circle cx="28.25" cy="28.9688" r="28" fill="#FFF4E5"/>
</g>
<g clip-path="url(#clip0_3539_164324)">
<path fill-rule="evenodd" clip-rule="evenodd" d="M31.9303 17.7925L31.9303 17.7925L31.1298 19.9918L28.6428 19.0866L29.4433 16.8873C29.7211 16.1242 29.9462 15.5057 28.7027 15.0531C27.4593 14.6005 27.2341 15.2191 26.9564 15.9821L26.1559 18.1815L24.89 17.7207C24.6306 17.6263 24.3436 17.7601 24.2492 18.0196L23.8519 19.1111C23.8042 19.2422 23.8134 19.3874 23.8774 19.5114L24.4129 20.5489L24.0913 21.4325L20.4707 31.3802L20.0886 32.4298L18.9208 33.0411C18.8103 33.0989 18.7254 33.1959 18.6828 33.3131L18.156 34.7604C18.0616 35.0199 18.1954 35.3068 18.4549 35.4013L19.7207 35.862L18.9104 38.0882C18.6327 38.8512 18.4076 39.4698 19.651 39.9224C20.8945 40.375 21.1196 39.7564 21.3974 38.9933L22.2076 36.7672L24.6946 37.6723L23.8843 39.8985C23.6066 40.6616 23.3814 41.2801 24.6249 41.7327C25.8684 42.1853 26.0935 41.5667 26.3712 40.8037L27.2127 38.4917C28.6316 38.8169 29.8742 38.7973 30.9404 38.4329C32.3435 37.9534 33.3544 36.8637 33.9731 35.1636C34.3355 34.1679 34.3789 33.2302 34.1031 32.3506C33.8355 31.4739 33.2895 30.7572 32.4654 30.2005C33.3707 30.1816 34.1653 29.9253 34.8492 29.4317C35.5361 28.9299 36.0372 28.2459 36.3524 27.3797C36.93 25.793 36.813 24.389 36.0015 23.1676C35.4735 22.3648 34.6605 21.6576 33.5624 21.0461L34.4172 18.6976C34.6949 17.9346 34.9201 17.316 33.6766 16.8634C32.4331 16.4108 32.208 17.0294 31.9303 17.7925ZM23.6506 33.9782L25.3876 29.2059L28.727 30.4213C30.3939 31.0555 30.9327 32.1822 30.3434 33.8013C30.0812 34.5218 29.6321 35.0001 28.9961 35.2361C28.3711 35.4671 27.6296 35.4264 26.7714 35.114L23.6506 33.9782ZM29.0204 27.6127L26.3246 26.6315L27.9466 22.1749L30.4967 23.1031C31.5006 23.4685 32.1684 23.9132 32.5002 24.4374C32.843 24.9564 32.8686 25.6166 32.5769 26.4181C32.0553 27.851 30.8698 28.2492 29.0204 27.6127Z" fill="#FFA117"/>
</g>
<defs>
<filter id="filter0_i_3539_164324" x="0.25" y="0.96875" width="56" height="56" filterUnits="userSpaceOnUse" color-interpolation-filters="sRGB">
<feFlood flood-opacity="0" result="BackgroundImageFix"/>
<feBlend mode="normal" in="SourceGraphic" in2="BackgroundImageFix" result="shape"/>
<feColorMatrix in="SourceAlpha" type="matrix" values="0 0 0 0 0 0 0 0 0 0 0 0 0 0 0 0 0 0 127 0" result="hardAlpha"/>
<feOffset/>
<feGaussianBlur stdDeviation="5"/>
<feComposite in2="hardAlpha" operator="arithmetic" k2="-1" k3="1"/>
<feColorMatrix type="matrix" values="0 0 0 0 0.866667 0 0 0 0 0.561889 0 0 0 0 0.104722 0 0 0 0.2 0"/>
<feBlend mode="normal" in2="shape" result="effect1_innerShadow_3539_164324"/>
</filter>
<clipPath id="clip0_3539_164324">
<rect width="28" height="28" fill="white" transform="translate(14.25 14.9688)"/>
</clipPath>
</defs>
</svg>
