<svg width="57" height="57" viewBox="0 0 57 57" fill="none" xmlns="http://www.w3.org/2000/svg">
<g filter="url(#filter0_i_10889_120593)">
<circle cx="28.25" cy="28.9688" r="28" fill="#EBF5FF"/>
</g>
<path d="M30.9141 24.9701H25.5807C25.2271 24.9701 24.888 25.1105 24.6379 25.3606C24.3879 25.6106 24.2474 25.9498 24.2474 26.3034V31.6367C24.2474 31.9903 24.3879 32.3295 24.6379 32.5795C24.888 32.8296 25.2271 32.9701 25.5807 32.9701H30.9141C31.2677 32.9701 31.6068 32.8296 31.8569 32.5795C32.1069 32.3295 32.2474 31.9903 32.2474 31.6367V26.3034C32.2474 25.9498 32.1069 25.6106 31.8569 25.3606C31.6068 25.1105 31.2677 24.9701 30.9141 24.9701ZM29.5807 30.3034H26.9141V27.6367H29.5807V30.3034ZM40.2474 30.3034C40.601 30.3034 40.9402 30.1629 41.1902 29.9129C41.4403 29.6628 41.5807 29.3237 41.5807 28.9701C41.5807 28.6164 41.4403 28.2773 41.1902 28.0272C40.9402 27.7772 40.601 27.6367 40.2474 27.6367H37.5807V24.9701H40.2474C40.601 24.9701 40.9402 24.8296 41.1902 24.5795C41.4403 24.3295 41.5807 23.9903 41.5807 23.6367C41.5807 23.2831 41.4403 22.944 41.1902 22.6939C40.9402 22.4439 40.601 22.3034 40.2474 22.3034H37.3407C37.1416 21.7442 36.8206 21.2363 36.4009 20.8166C35.9811 20.3969 35.4733 20.0758 34.9141 19.8767V16.9701C34.9141 16.6164 34.7736 16.2773 34.5235 16.0272C34.2735 15.7772 33.9344 15.6367 33.5807 15.6367C33.2271 15.6367 32.888 15.7772 32.6379 16.0272C32.3879 16.2773 32.2474 16.6164 32.2474 16.9701V19.6367H29.5807V16.9701C29.5807 16.6164 29.4403 16.2773 29.1902 16.0272C28.9402 15.7772 28.601 15.6367 28.2474 15.6367C27.8938 15.6367 27.5546 15.7772 27.3046 16.0272C27.0545 16.2773 26.9141 16.6164 26.9141 16.9701V19.6367H24.2474V16.9701C24.2474 16.6164 24.1069 16.2773 23.8569 16.0272C23.6068 15.7772 23.2677 15.6367 22.9141 15.6367C22.5604 15.6367 22.2213 15.7772 21.9713 16.0272C21.7212 16.2773 21.5807 16.6164 21.5807 16.9701V19.8767C21.0215 20.0758 20.5137 20.3969 20.0939 20.8166C19.6742 21.2363 19.3532 21.7442 19.1541 22.3034H16.2474C15.8938 22.3034 15.5546 22.4439 15.3046 22.6939C15.0545 22.944 14.9141 23.2831 14.9141 23.6367C14.9141 23.9903 15.0545 24.3295 15.3046 24.5795C15.5546 24.8296 15.8938 24.9701 16.2474 24.9701H18.9141V27.6367H16.2474C15.8938 27.6367 15.5546 27.7772 15.3046 28.0272C15.0545 28.2773 14.9141 28.6164 14.9141 28.9701C14.9141 29.3237 15.0545 29.6628 15.3046 29.9129C15.5546 30.1629 15.8938 30.3034 16.2474 30.3034H18.9141V32.9701H16.2474C15.8938 32.9701 15.5546 33.1105 15.3046 33.3606C15.0545 33.6106 14.9141 33.9498 14.9141 34.3034C14.9141 34.657 15.0545 34.9961 15.3046 35.2462C15.5546 35.4962 15.8938 35.6367 16.2474 35.6367H19.1541C19.3532 36.1959 19.6742 36.7038 20.0939 37.1235C20.5137 37.5432 21.0215 37.8643 21.5807 38.0634V40.9701C21.5807 41.3237 21.7212 41.6628 21.9713 41.9129C22.2213 42.1629 22.5604 42.3034 22.9141 42.3034C23.2677 42.3034 23.6068 42.1629 23.8569 41.9129C24.1069 41.6628 24.2474 41.3237 24.2474 40.9701V38.3034H26.9141V40.9701C26.9141 41.3237 27.0545 41.6628 27.3046 41.9129C27.5546 42.1629 27.8938 42.3034 28.2474 42.3034C28.601 42.3034 28.9402 42.1629 29.1902 41.9129C29.4403 41.6628 29.5807 41.3237 29.5807 40.9701V38.3034H32.2474V40.9701C32.2474 41.3237 32.3879 41.6628 32.6379 41.9129C32.888 42.1629 33.2271 42.3034 33.5807 42.3034C33.9344 42.3034 34.2735 42.1629 34.5235 41.9129C34.7736 41.6628 34.9141 41.3237 34.9141 40.9701V38.0634C35.4733 37.8643 35.9811 37.5432 36.4009 37.1235C36.8206 36.7038 37.1416 36.1959 37.3407 35.6367H40.2474C40.601 35.6367 40.9402 35.4962 41.1902 35.2462C41.4403 34.9961 41.5807 34.657 41.5807 34.3034C41.5807 33.9498 41.4403 33.6106 41.1902 33.3606C40.9402 33.1105 40.601 32.9701 40.2474 32.9701H37.5807V30.3034H40.2474ZM34.9141 34.3034C34.9141 34.657 34.7736 34.9961 34.5235 35.2462C34.2735 35.4962 33.9344 35.6367 33.5807 35.6367H22.9141C22.5604 35.6367 22.2213 35.4962 21.9713 35.2462C21.7212 34.9961 21.5807 34.657 21.5807 34.3034V23.6367C21.5807 23.2831 21.7212 22.944 21.9713 22.6939C22.2213 22.4439 22.5604 22.3034 22.9141 22.3034H33.5807C33.9344 22.3034 34.2735 22.4439 34.5235 22.6939C34.7736 22.944 34.9141 23.2831 34.9141 23.6367V34.3034Z" fill="#1776D2"/>
<defs>
<filter id="filter0_i_10889_120593" x="0.25" y="0.96875" width="56" height="56" filterUnits="userSpaceOnUse" color-interpolation-filters="sRGB">
<feFlood flood-opacity="0" result="BackgroundImageFix"/>
<feBlend mode="normal" in="SourceGraphic" in2="BackgroundImageFix" result="shape"/>
<feColorMatrix in="SourceAlpha" type="matrix" values="0 0 0 0 0 0 0 0 0 0 0 0 0 0 0 0 0 0 127 0" result="hardAlpha"/>
<feOffset/>
<feGaussianBlur stdDeviation="5"/>
<feComposite in2="hardAlpha" operator="arithmetic" k2="-1" k3="1"/>
<feColorMatrix type="matrix" values="0 0 0 0 0.25309 0 0 0 0 0.480187 0 0 0 0 0.820833 0 0 0 0.2 0"/>
<feBlend mode="normal" in2="shape" result="effect1_innerShadow_10889_120593"/>
</filter>
</defs>
</svg>
