<svg width="57" height="57" viewBox="0 0 57 57" fill="none" xmlns="http://www.w3.org/2000/svg">
<g filter="url(#filter0_i_3539_164704)">
<circle cx="28.75" cy="28.9688" r="28" fill="#EDF7ED"/>
</g>
<path d="M28.7484 21.5034C25.6556 21.5034 23.1484 23.1749 23.1484 25.2367C23.1484 27.2986 25.6556 28.9701 28.7484 28.9701C31.8412 28.9701 34.3485 30.6415 34.3485 32.7034C34.3485 34.7652 31.8413 36.4367 28.7485 36.4367M28.7484 21.5034C30.8212 21.5034 32.631 22.2542 33.5993 23.3701M28.7484 21.5034V19.6367M28.7484 21.5034L28.7485 36.4367M28.7485 36.4367L28.7484 38.3034M28.7485 36.4367C26.6757 36.4367 24.8659 35.6859 23.8977 34.5701" stroke="#5CB660" stroke-width="3" stroke-linecap="round"/>
<defs>
<filter id="filter0_i_3539_164704" x="0.75" y="0.96875" width="56" height="56" filterUnits="userSpaceOnUse" color-interpolation-filters="sRGB">
<feFlood flood-opacity="0" result="BackgroundImageFix"/>
<feBlend mode="normal" in="SourceGraphic" in2="BackgroundImageFix" result="shape"/>
<feColorMatrix in="SourceAlpha" type="matrix" values="0 0 0 0 0 0 0 0 0 0 0 0 0 0 0 0 0 0 127 0" result="hardAlpha"/>
<feOffset/>
<feGaussianBlur stdDeviation="5"/>
<feComposite in2="hardAlpha" operator="arithmetic" k2="-1" k3="1"/>
<feColorMatrix type="matrix" values="0 0 0 0 0.220347 0 0 0 0 0.695833 0 0 0 0 0.101476 0 0 0 0.2 0"/>
<feBlend mode="normal" in2="shape" result="effect1_innerShadow_3539_164704"/>
</filter>
</defs>
</svg>
