<svg width="57" height="57" viewBox="0 0 57 57" fill="none" xmlns="http://www.w3.org/2000/svg">
<g filter="url(#filter0_i_10889_120089)">
<circle cx="28.25" cy="28.9688" r="28" fill="#FDEDED"/>
</g>
<path d="M17.5859 22.3021V35.6354C17.5859 38.5809 22.3616 40.9688 28.2526 40.9688C34.1436 40.9688 38.9193 38.5809 38.9193 35.6354V22.3021M17.5859 22.3021C17.5859 25.2476 22.3616 27.6354 28.2526 27.6354C34.1436 27.6354 38.9193 25.2476 38.9193 22.3021M17.5859 22.3021C17.5859 19.3566 22.3616 16.9688 28.2526 16.9688C34.1436 16.9688 38.9193 19.3566 38.9193 22.3021M38.9193 28.9688C38.9193 31.9143 34.1436 34.3021 28.2526 34.3021C22.3616 34.3021 17.5859 31.9143 17.5859 28.9688" stroke="#FF3C38" stroke-width="3"/>
<defs>
<filter id="filter0_i_10889_120089" x="0.25" y="0.96875" width="56" height="56" filterUnits="userSpaceOnUse" color-interpolation-filters="sRGB">
<feFlood flood-opacity="0" result="BackgroundImageFix"/>
<feBlend mode="normal" in="SourceGraphic" in2="BackgroundImageFix" result="shape"/>
<feColorMatrix in="SourceAlpha" type="matrix" values="0 0 0 0 0 0 0 0 0 0 0 0 0 0 0 0 0 0 127 0" result="hardAlpha"/>
<feOffset/>
<feGaussianBlur stdDeviation="5"/>
<feComposite in2="hardAlpha" operator="arithmetic" k2="-1" k3="1"/>
<feColorMatrix type="matrix" values="0 0 0 0 0.9875 0 0 0 0 0.312708 0 0 0 0 0.312708 0 0 0 0.2 0"/>
<feBlend mode="normal" in2="shape" result="effect1_innerShadow_10889_120089"/>
</filter>
</defs>
</svg>
